# xmcd
#
# Track frame offsets:
#	150
#	7064
#	15467
#	20507
#	34553
#	39268
#	50072
#	52654
#	66432
#	71298
#	76223
#	79870
#	91102
#	99191
#	110220
#	126336
#	143984
#	149023
#	156578
#	172921
#	178915
#	190940
#	204803
#	215171
#	226750
#	231962
#
# Disc length: 3169 seconds
#
# Revision: 0
# Processed by: cddbd v1.5.2PL0 Copyright (c) Steve Scherf et al.
# Submitted via: EZCDAudioConverter 1.1.0.1
#
DISCID=640c5f1a
DTITLE=deutsche kinder - das große buch der kinderlieder
DYEAR=1900
DGENRE=Kinder
TTITLE0=es war eine mutter, die hatte vier kinder
TTITLE1=winter ade
TTITLE2=es tönen die lieder
TTITLE3=komm lieber mai
TTITLE4=fuchs, du hast die gans gestohlen
TTITLE5=alle vögel sind schon da
TTITLE6=kommt ein vogel geflogen
TTITLE7=ein vogel wollte hochzeit machen
TTITLE8=der kuckuck und der esel
TTITLE9=summ, summ, summ
TTITLE10=ein männlein steht im walde
TTITLE11=guten abend, gute nacht
TTITLE12=der mond ist aufgegangen
TTITLE13=die blümelein, sie schlafen
TTITLE14=weißt du wieviel sternlein stehen
TTITLE15=wer will fleißige handwerker sehn
TTITLE16=es klappert die mühle
TTITLE17=backe, backe kuchen
TTITLE18=ich geh mit meiner laterne
TTITLE19=laterne, laterne
TTITLE20=hänsel und gretel
TTITLE21=brüderchen, komm tanz mit mir
TTITLE22=dornröschen war ein schönes kind
TTITLE23=grün, grün, grün
TTITLE24=spannenlanger hansel
TTITLE25=es tantzt ein bi-ba-butzemann
EXTD=
EXTT0=
EXTT1=
EXTT2=
EXTT3=
EXTT4=
EXTT5=
EXTT6=
EXTT7=
EXTT8=
EXTT9=
EXTT10=
EXTT11=
EXTT12=
EXTT13=
EXTT14=
EXTT15=
EXTT16=
EXTT17=
EXTT18=
EXTT19=
EXTT20=
EXTT21=
EXTT22=
EXTT23=
EXTT24=
EXTT25=
PLAYORDER=
